<svg width="866" height="420" viewBox="0 0 866 420" fill="none" xmlns="http://www.w3.org/2000/svg">
<path d="M150 187.5H0V162.5H150C153.516 162.5 156.445 161.328 158.789 158.984C161.263 156.51 162.5 153.516 162.5 150C162.5 146.484 161.263 143.555 158.789 141.211C156.445 138.737 153.516 137.5 150 137.5H100C89.5833 137.5 80.7292 133.854 73.4375 126.562C66.1458 119.271 62.5 110.417 62.5 100C62.5 89.5833 66.1458 80.7292 73.4375 73.4375C80.7292 66.1458 89.5833 62.5 100 62.5H175V87.5H100C96.4844 87.5 93.4896 88.737 91.0156 91.2109C88.6719 93.5547 87.5 96.4844 87.5 100C87.5 103.516 88.6719 106.51 91.0156 108.984C93.4896 111.328 96.4844 112.5 100 112.5H150C160.417 112.5 169.271 116.146 176.562 123.438C183.854 130.729 187.5 139.583 187.5 150C187.5 160.417 183.854 169.271 176.562 176.562C169.271 183.854 160.417 187.5 150 187.5Z" fill="#FCF7F7"/>
<path d="M265.625 161.719L245.117 125H270.117L284.57 151.172C291.602 143.88 295.117 135.156 295.117 125C295.117 114.583 291.471 105.729 284.18 98.4375C276.888 91.1458 268.034 87.5 257.617 87.5C247.201 87.5 238.346 91.1458 231.055 98.4375C223.763 105.729 220.117 114.583 220.117 125C220.117 135.417 223.763 144.271 231.055 151.562C238.346 158.854 247.201 162.5 257.617 162.5C260.352 162.5 263.021 162.24 265.625 161.719ZM297.07 173.633L332.617 237.5H307.617L278.125 184.375C271.745 186.458 264.909 187.5 257.617 187.5C240.299 187.5 225.521 181.445 213.281 169.336C201.172 157.096 195.117 142.318 195.117 125C195.117 107.682 201.172 92.9688 213.281 80.8594C225.521 68.6198 240.299 62.5 257.617 62.5C274.935 62.5 289.648 68.6198 301.758 80.8594C313.997 92.9688 320.117 107.682 320.117 125C320.117 142.318 314.062 157.031 301.953 169.141C300.391 170.703 298.763 172.201 297.07 173.633Z" fill="#FCF7F7"/>
<path d="M333.203 125V62.5H358.203V125C358.203 135.417 361.849 144.271 369.141 151.562C376.432 158.854 385.286 162.5 395.703 162.5C406.12 162.5 414.974 158.854 422.266 151.562C429.557 144.271 433.203 135.417 433.203 125V0H458.203V125C458.203 142.318 452.083 157.096 439.844 169.336C427.734 181.445 413.021 187.5 395.703 187.5C378.385 187.5 363.607 181.445 351.367 169.336C339.258 157.096 333.203 142.318 333.203 125Z" fill="#FCF7F7"/>
<path d="M505.078 187.5H480.078V62.5H505.078V187.5Z" fill="#FCF7F7"/>
<path d="M620.312 187.5H532.812V62.5H620.312C637.63 62.5 652.344 68.6198 664.453 80.8594C676.693 92.9688 682.812 107.682 682.812 125C682.812 142.318 676.693 157.096 664.453 169.336C652.344 181.445 637.63 187.5 620.312 187.5ZM557.812 162.5H620.312C630.729 162.5 639.583 158.854 646.875 151.562C654.167 144.271 657.812 135.417 657.812 125C657.812 114.583 654.167 105.729 646.875 98.4375C639.583 91.1458 630.729 87.5 620.312 87.5H557.812V162.5Z" fill="#FCF7F7"/>
<path d="M157.5 216.5H865.5V419.5H157.5V216.5Z" fill="#E84481"/>
<path d="M324.102 387.5L310.234 362.5H232.5C215.182 362.5 200.404 356.445 188.164 344.336C176.055 332.096 170 317.318 170 300C170 282.682 176.055 267.969 188.164 255.859C200.404 243.62 215.182 237.5 232.5 237.5H332.5L320 262.5H232.5C222.083 262.5 213.229 266.146 205.938 273.438C198.646 280.729 195 289.583 195 300C195 310.417 198.646 319.271 205.938 326.562C213.229 333.854 222.083 337.5 232.5 337.5H296.367L282.5 312.5H232.5V287.5H295L349.492 387.5H324.102Z" fill="#FCF7F7"/>
<path d="M341.875 362.5L404.375 231.25L466.875 362.5H438.75L404.375 290.625L370 362.5H341.875Z" fill="#FCF7F7"/>
<path d="M499.297 287.5V412.5H474.297V237.5H499.297L549.297 331.25L599.297 237.5H624.297V362.5H599.297V287.5L561.797 362.5H536.797L499.297 287.5Z" fill="#FCF7F7"/>
<path d="M852.031 312.5H708.281V287.5H852.031V312.5ZM777.031 237.5V262.5H677.031V337.5H777.031V362.5H652.031V237.5H777.031Z" fill="#FCF7F7"/>
<path d="M295.5 125C295.5 145.711 278.711 162.5 258 162.5C237.289 162.5 220.5 145.711 220.5 125C220.5 104.289 237.289 87.5 258 87.5C278.711 87.5 295.5 104.289 295.5 125Z" fill="#E84481"/>
<path d="M245.658 125.132H270.658L333.158 237.63L308.158 237.63L245.658 125.132Z" fill="#FCF7F7"/>
</svg>
